<svg width="23" height="23" viewBox="0 0 23 23" fill="none" xmlns="http://www.w3.org/2000/svg">
<path d="M19.383 7.53613H18.3437C18.3437 5.81085 17.6528 4.15622 16.423 2.93626C15.1932 1.7163 13.5252 1.03093 11.786 1.03093C10.0467 1.03093 8.37875 1.7163 7.14893 2.93626C5.91912 4.15622 5.22823 5.81085 5.22823 7.53613H4.18896C4.18896 5.53743 4.98936 3.62058 6.41408 2.20728C7.83879 0.793984 9.77112 0 11.786 0C13.8008 0 15.7331 0.793984 17.1579 2.20728C18.5826 3.62058 19.383 5.53743 19.383 7.53613Z" fill="black"/>
<path d="M17.3145 23H5.95535C5.37726 23.0006 4.81703 22.8012 4.37122 22.4361C3.9254 22.071 3.62193 21.5631 3.51308 20.9999L1.90224 12.7009C1.84224 12.4688 1.70259 12.2647 1.50731 12.1236C1.27722 11.9317 1.09543 11.6892 0.97636 11.4154C0.85729 11.1416 0.804215 10.844 0.821397 10.5463C0.858435 10.0431 1.08774 9.573 1.46247 9.23194C1.83719 8.89087 2.32905 8.70462 2.83757 8.71121H20.7545C21.2654 8.70226 21.7601 8.88909 22.1356 9.23282C22.5111 9.57655 22.7386 10.0507 22.7706 10.5566C22.7861 10.8561 22.7303 11.155 22.6075 11.4291C22.4847 11.7031 22.2984 11.9446 22.0639 12.1339C21.8654 12.2805 21.7197 12.4865 21.6482 12.7216L19.7464 21.0721C19.625 21.6211 19.3172 22.1122 18.8745 22.4631C18.4319 22.814 17.8811 23.0036 17.3145 23ZM2.8272 9.74215C2.58611 9.73819 2.35222 9.82379 2.17147 9.9821C1.99073 10.1404 1.87618 10.36 1.85029 10.5978C1.84085 10.738 1.86513 10.8784 1.92114 11.0075C1.97716 11.1366 2.0633 11.2506 2.17246 11.3401C2.54562 11.6332 2.80607 12.0444 2.91032 12.505L4.53157 20.8041C4.59461 21.1325 4.77146 21.4288 5.03147 21.6415C5.29149 21.8543 5.6183 21.9701 5.95535 21.969H17.3145C17.6434 21.9678 17.9623 21.856 18.219 21.652C18.4757 21.4479 18.6551 21.1635 18.7279 20.8453L20.6194 12.4948C20.7449 12.0357 21.0187 11.6301 21.3988 11.3401C21.5065 11.2516 21.5917 11.1393 21.6477 11.0122C21.7036 10.885 21.7287 10.7466 21.721 10.6081C21.6999 10.3675 21.5871 10.144 21.4055 9.98308C21.224 9.82216 20.9874 9.73599 20.7441 9.74215H2.8272Z" fill="black"/>
</svg>
