<svg width="16" height="16" viewBox="0 0 16 16" fill="none" xmlns="http://www.w3.org/2000/svg">
<g clip-path="url(#clip0)">
<path d="M15.8964 15.1487L12.041 11.2933C13.0734 10.0901 13.6973 8.52796 13.6973 6.82217C13.6973 3.03046 10.6132 -0.05 6.82512 -0.05C3.03341 -0.05 -0.0470551 3.03404 -0.0470551 6.82217C-0.0470551 10.6103 3.03697 13.6943 6.82512 13.6943C8.53091 13.6943 10.0931 13.0705 11.2962 12.0381L15.1516 15.8934C15.2532 15.995 15.3901 16.05 15.524 16.05C15.657 16.05 15.7944 15.9992 15.8967 15.8931C16.1004 15.6891 16.1003 15.3526 15.8964 15.1487ZM1.00727 6.82217C1.00727 3.61433 3.61724 1.00787 6.82157 1.00787C10.0294 1.00787 12.6359 3.61784 12.6359 6.82217C12.6359 10.0265 10.0294 12.64 6.82157 12.64C3.61727 12.64 1.00727 10.0301 1.00727 6.82217Z" fill="#7F00FF" stroke="#7F00FF" stroke-width="0.1"/>
</g>
<defs>
<clipPath id="clip0">
<rect width="16" height="16" fill="white"/>
</clipPath>
</defs>
</svg>
