<svg width="15" height="16" viewBox="0 0 15 16" fill="none" xmlns="http://www.w3.org/2000/svg">
<path d="M14.9998 7.50071C14.9998 8.584 14.9998 9.66729 14.9998 10.7506C14.9923 11.5992 14.7281 12.4258 14.2419 13.1214C13.7556 13.817 13.0702 14.3491 12.2758 14.6477C11.6 14.9 10.882 15.0198 10.1609 15.0006C8.282 15.0006 6.4031 15.0006 4.5242 15.0006C3.61496 15.0214 2.7208 14.7659 1.95981 14.2679C1.04034 13.6986 0.379166 12.7931 0.116869 11.744C0.0415001 11.4235 0.0022988 11.0955 0 10.7663C0 8.6312 0 6.49608 0 4.34973C0 3.24846 0.307906 2.25956 1.09228 1.4617C1.83327 0.66191 2.83969 0.158698 3.92412 0.0457858C4.59836 -0.0148964 5.27261 0.00308348 5.93337 0.000835988C7.36727 0.000835988 8.80342 0.000835988 10.2396 0.000835988C11.2127 0.000835988 12.1477 0.15816 12.9793 0.697558C13.9015 1.24834 14.5755 2.13404 14.8604 3.1698C14.9465 3.52301 14.991 3.88506 14.993 4.24859C15.0087 5.33188 14.993 6.41517 14.993 7.49846L14.9998 7.50071ZM1.12375 7.50071C1.12375 8.59524 1.12375 9.68752 1.12375 10.782C1.12375 12.0519 1.79799 12.9127 2.87679 13.5015C3.40132 13.7661 3.98428 13.8937 4.5714 13.8723C6.50648 13.8723 8.44157 13.8723 10.3767 13.8723C11.0491 13.8839 11.7122 13.7139 12.296 13.3801C13.3119 12.7913 13.8693 11.9238 13.8693 10.7438C13.8827 8.55254 13.8872 6.36123 13.8693 4.16768C13.8693 2.87088 13.1343 2.01459 12.0263 1.44597C11.5279 1.2095 10.9797 1.09693 10.4284 1.11784C8.5045 1.11784 6.58065 1.11784 4.65455 1.11784C4.03801 1.10168 3.42688 1.23672 2.87454 1.51115C1.79799 2.07077 1.14847 2.9428 1.12375 4.19016C1.09678 5.29368 1.12375 6.39719 1.12375 7.50071Z" fill="black"/>
<path d="M7.50641 10.7056C6.82076 10.6954 6.15343 10.4827 5.58836 10.0942C5.02329 9.70573 4.58571 9.15882 4.33067 8.52229C4.07562 7.88575 4.0145 7.18801 4.15498 6.51683C4.29547 5.84564 4.63129 5.23099 5.1202 4.75017C5.60912 4.26935 6.22929 3.94384 6.90273 3.81459C7.57617 3.68533 8.27279 3.7581 8.90498 4.02373C9.53716 4.28937 10.0767 4.73602 10.4557 5.30749C10.8347 5.87897 11.0362 6.54976 11.035 7.23549C11.0243 8.16264 10.6473 9.04793 9.98616 9.69807C9.32507 10.3482 8.43362 10.7104 7.50641 10.7056ZM5.10834 7.22874C5.09941 7.70618 5.23283 8.17547 5.49159 8.57681C5.75035 8.97815 6.12273 9.29336 6.5613 9.48229C6.99986 9.67122 7.48473 9.7253 7.95415 9.63765C8.42356 9.55 8.85624 9.32458 9.19707 8.99012C9.53791 8.65566 9.77145 8.2273 9.86794 7.75963C9.96443 7.29195 9.9195 6.80614 9.73889 6.36409C9.55827 5.92205 9.25013 5.54378 8.85375 5.27749C8.45736 5.01121 7.99067 4.86896 7.51315 4.86888C6.88237 4.86644 6.27607 5.11287 5.82584 5.55468C5.37562 5.99648 5.1178 6.59802 5.10834 7.22874Z" fill="black"/>
<path d="M12.1835 3.45925C12.1782 3.60441 12.1303 3.74481 12.0457 3.86289C11.9611 3.98098 11.8436 4.07154 11.7078 4.12325C11.5721 4.17496 11.4241 4.18554 11.2824 4.15367C11.1406 4.1218 11.0114 4.04889 10.9109 3.94405C10.8104 3.8392 10.7429 3.70706 10.717 3.56412C10.6911 3.42118 10.7079 3.27378 10.7652 3.14032C10.8226 3.00685 10.918 2.89324 11.0395 2.81366C11.1611 2.73408 11.3033 2.69207 11.4486 2.69285C11.6465 2.70042 11.8338 2.78457 11.9709 2.92755C12.108 3.07052 12.1843 3.26116 12.1835 3.45925Z" fill="black"/>
</svg>
