<svg width="10" height="15" viewBox="0 0 10 15" fill="none" xmlns="http://www.w3.org/2000/svg">
<path d="M4.20166 10.5683L3.63533 10.4407C2.4298 10.3316 1.28959 9.89466 0.366066 9.1878C0.189338 9.06588 0.0625659 8.89448 0.0056748 8.70056C-0.0240059 8.54835 -0.0126013 8.39193 0.0389248 8.24453C0.090451 8.09713 0.180585 7.96307 0.30171 7.85369C0.46213 7.69468 0.681466 7.59396 0.918486 7.57046C1.15551 7.54696 1.39389 7.6023 1.58882 7.72608C1.85911 7.86529 2.09079 8.0393 2.36109 8.17852C2.96353 8.45606 3.61843 8.6292 4.29175 8.68896C5.2934 8.80541 6.31137 8.6772 7.23924 8.31773C7.55436 8.18314 7.85583 8.02399 8.14021 7.84209C8.39453 7.67407 8.70019 7.58088 9.01545 7.57527C9.20637 7.57811 9.39219 7.63125 9.55001 7.72813C9.70782 7.82502 9.83072 7.96142 9.90355 8.12051C9.96515 8.21785 10.0047 8.32524 10.0199 8.43645C10.0351 8.54766 10.0257 8.66049 9.99216 8.76839C9.95864 8.8763 9.90169 8.97713 9.82462 9.06506C9.74755 9.15298 9.65188 9.22625 9.54316 9.2806C9.07349 9.64881 8.53826 9.94296 7.96002 10.1507C7.39475 10.3408 6.80758 10.4731 6.20955 10.5451H5.82341L5.93925 10.6727L8.92535 13.3641C9.08104 13.489 9.18774 13.6558 9.2295 13.8399C9.27126 14.0239 9.24584 14.2151 9.15703 14.385C9.07551 14.5596 8.93989 14.7094 8.76642 14.8164C8.59294 14.9234 8.38894 14.983 8.17883 14.9883C8.05793 14.9874 7.9385 14.9644 7.82783 14.9205C7.71717 14.8766 7.61762 14.8128 7.53527 14.733L5.37293 12.8189L5.15412 12.5753C5.08976 12.5057 5.03828 12.5057 4.96105 12.5753L3.76404 13.6542C3.35216 14.0254 2.95316 14.3966 2.47693 14.7562C2.30417 14.9065 2.07346 14.9905 1.83337 14.9905C1.59329 14.9905 1.36257 14.9065 1.18982 14.7562C1.00463 14.6117 0.877878 14.4158 0.829426 14.1994C0.800605 14.0688 0.807835 13.9339 0.85048 13.8065C0.893124 13.679 0.969875 13.563 1.07398 13.4685L2.68286 12.0184L4.09869 10.6843L4.20166 10.5683Z" fill="black"/>
<path d="M5.00025 1.72619e-05C5.83486 -0.00225158 6.65138 0.219183 7.34603 0.636178C8.04068 1.05317 8.58209 1.6469 8.90146 2.3419C9.22083 3.0369 9.30374 3.80179 9.13964 4.53936C8.97554 5.27693 8.57185 5.95387 7.97988 6.48416C7.3879 7.01444 6.63437 7.37412 5.81505 7.51748C4.99573 7.66084 4.14762 7.58141 3.37851 7.28929C2.60939 6.99716 1.954 6.50553 1.49563 5.87688C1.03727 5.24823 0.796616 4.51094 0.804269 3.75872C0.811069 2.75972 1.25614 1.80373 2.04231 1.0995C2.82847 0.395261 3.89185 -1.53866e-06 5.00025 1.72619e-05ZM2.91513 3.77032C2.91012 4.14148 3.02716 4.50566 3.2515 4.81694C3.47583 5.12822 3.79742 5.37266 4.17569 5.51942C4.55396 5.66617 4.97198 5.70868 5.37702 5.64158C5.78206 5.57449 6.15599 5.40078 6.45164 5.14238C6.74729 4.88398 6.95143 4.55246 7.0383 4.18962C7.12517 3.82679 7.09088 3.44889 6.93977 3.1036C6.78866 2.7583 6.52748 2.46107 6.18918 2.2494C5.85089 2.03772 5.45062 1.92107 5.03886 1.91417C4.76396 1.90956 4.49076 1.954 4.23499 2.04494C3.97922 2.13587 3.74593 2.27149 3.54855 2.44401C3.35116 2.61652 3.19358 2.82252 3.08487 3.05015C2.97616 3.27777 2.91848 3.52252 2.91513 3.77032Z" fill="black"/>
</svg>
