<svg width="25" height="25" viewBox="0 0 25 25" fill="none" xmlns="http://www.w3.org/2000/svg">
<path d="M23.8317 23.831C24.1161 23.5463 24.116 23.0763 23.8314 22.7917L18.2749 17.2352C19.7636 15.5074 20.6637 13.2608 20.6637 10.8069C20.6637 5.36838 16.2402 0.95 10.8069 0.95C5.36838 0.95 0.95 5.37351 0.95 10.8069C0.95 16.2403 5.37349 20.6637 10.8069 20.6637C13.2608 20.6637 15.5074 19.7636 17.2352 18.2749L22.7917 23.8314C22.9336 23.9733 23.1248 24.05 23.3115 24.05C23.4973 24.05 23.689 23.979 23.8317 23.831ZM23.8317 23.831C23.8316 23.8311 23.8315 23.8313 23.8314 23.8314L23.796 23.796L23.832 23.8307C23.8319 23.8308 23.8318 23.8309 23.8317 23.831ZM2.42184 10.8069C2.42184 6.18351 6.18347 2.42694 10.8018 2.42694C15.4251 2.42694 19.1817 6.18857 19.1817 10.8069C19.1817 15.4252 15.4251 19.1919 10.8018 19.1919C6.18351 19.1919 2.42184 15.4303 2.42184 10.8069Z" fill="black" stroke="black" stroke-width="0.1"/>
</svg>
