<svg width="14" height="9" viewBox="0 0 14 9" fill="none" xmlns="http://www.w3.org/2000/svg">
<path d="M13.405 0.867273C13.0252 0.235636 12.6131 0.119455 11.774 0.0752727C10.9358 0.0220909 8.82788 0 7.00175 0C5.17212 0 3.06337 0.022091 2.226 0.0744546C1.38862 0.119455 0.975625 0.234818 0.592375 0.867273C0.20125 1.49809 0 2.58464 0 4.49755C0 4.49918 0 4.5 0 4.5C0 4.50164 0 4.50245 0 4.50245V4.50409C0 6.40882 0.20125 7.50355 0.592375 8.12782C0.975625 8.75945 1.38775 8.874 2.22513 8.92718C3.06337 8.973 5.17212 9 7.00175 9C8.82788 9 10.9358 8.973 11.7749 8.928C12.614 8.87482 13.0261 8.76027 13.4059 8.12864C13.8005 7.50436 14 6.40964 14 4.50491C14 4.50491 14 4.50245 14 4.50082C14 4.50082 14 4.49918 14 4.49836C14 2.58464 13.8005 1.49809 13.405 0.867273Z" fill="black"/>
<path d="M5.25003 6.9545V2.04541L9.62503 4.49996L5.25003 6.9545Z" fill="#FAFAFA"/>
</svg>
