<svg width="16" height="14" viewBox="0 0 16 14" fill="none" xmlns="http://www.w3.org/2000/svg">
<path d="M14.4612 6.11912C14.4702 6.02977 14.4408 5.93976 14.3795 5.87302C14.3187 5.80639 14.2325 5.76835 14.1424 5.76835H2.3903C2.29959 5.76835 2.21384 5.80649 2.15314 5.87309C2.09195 5.93978 2.06254 6.02928 2.0715 6.11905L2.07151 6.1191L2.68095 12.1902L2.78045 12.1802L2.68095 12.1902C2.72928 12.6729 3.13378 13.0367 3.62064 13.0367H12.9112C13.398 13.0367 13.8029 12.673 13.8522 12.1904L13.8522 12.1902L14.4612 6.11912ZM14.4612 6.11912L14.3617 6.10911L14.4612 6.11909L14.4612 6.11912ZM3.31766 12.1269L2.74348 6.40653H13.7883L13.2142 12.1269L13.2141 12.1269C13.1986 12.2819 13.0691 12.3989 12.9112 12.3989H3.6202C3.46241 12.3989 3.3332 12.282 3.31767 12.1269L3.31766 12.1269Z" fill="white" stroke="white" stroke-width="0.2"/>
<path d="M11.9783 3.75733L11.9787 3.75767C12.0383 3.8068 12.1111 3.83174 12.1837 3.83174C12.2748 3.83174 12.3658 3.79306 12.4292 3.71788L12.4294 3.7177C12.543 3.58239 12.5248 3.38141 12.3897 3.26815L12.3895 3.26797L9.63866 0.974174L9.63866 0.974174L9.63848 0.974028C9.50279 0.861403 9.30221 0.879488 9.1881 1.0132L9.1881 1.0132L9.1876 1.0138C9.07395 1.14911 9.09216 1.35009 9.22722 1.46335L9.22743 1.46353L11.9783 3.75733ZM12.3255 3.34477C12.4184 3.42269 12.4307 3.56058 12.3528 3.65338C12.3092 3.70504 12.2467 3.73174 12.1837 3.73174C12.1339 3.73174 12.0837 3.71467 12.0423 3.68052L12.3255 3.34477Z" fill="white" stroke="white" stroke-width="0.2"/>
<path d="M4.42575 3.75733L4.42534 3.75767C4.36577 3.8068 4.29299 3.83174 4.22035 3.83174C4.12927 3.83174 4.03829 3.79306 3.97484 3.71788L3.97468 3.7177C3.86104 3.58239 3.87925 3.38141 4.0143 3.26815L4.01452 3.26797L6.76539 0.974174L6.76539 0.974174L6.76557 0.974028C6.90127 0.861403 7.10184 0.879488 7.21595 1.0132L7.21595 1.0132L7.21646 1.0138C7.3301 1.14911 7.3119 1.35009 7.17684 1.46335L7.17662 1.46353L4.42575 3.75733Z" fill="white" stroke="white" stroke-width="0.2"/>
<path d="M1.75961 6.40644H14.772C15.2459 6.40644 15.6316 6.02338 15.6316 5.55133V4.15141C15.6316 3.67933 15.2454 3.2963 14.772 3.2963H1.75961C1.28616 3.2963 0.9 3.67933 0.9 4.15141V5.55133C0.9 6.02342 1.28616 6.40644 1.75961 6.40644ZM1.54035 4.15098C1.54035 4.03167 1.63813 3.93361 1.75961 3.93361H14.772C14.8935 3.93361 14.9912 4.03167 14.9912 4.15098V5.55089C14.9912 5.67012 14.8931 5.76826 14.772 5.76826H1.75961C1.63813 5.76826 1.54035 5.67021 1.54035 5.55089V4.15098Z" fill="white" stroke="white" stroke-width="0.2"/>
<path d="M4.75522 10.9292C4.75522 11.1058 4.89919 11.248 5.0754 11.248C5.25205 11.248 5.39558 11.1062 5.39558 10.9292V7.75549C5.39558 7.57889 5.25161 7.43662 5.0754 7.43662C4.89919 7.43662 4.75522 7.57889 4.75522 7.75549V10.9292Z" fill="white" stroke="white" stroke-width="0.2"/>
<path d="M6.88218 10.9292C6.88218 11.1058 7.02615 11.248 7.20235 11.248C7.379 11.248 7.52253 11.1062 7.52253 10.9292V7.75549C7.52253 7.57889 7.37856 7.43662 7.20235 7.43662C7.02615 7.43662 6.88218 7.57889 6.88218 7.75549V10.9292Z" fill="white" stroke="white" stroke-width="0.2"/>
<path d="M9.00913 10.9292C9.00913 11.1058 9.1531 11.248 9.32931 11.248C9.50538 11.248 9.64948 11.1063 9.64948 10.9292V7.75549C9.64948 7.57889 9.50551 7.43662 9.32931 7.43662C9.1531 7.43662 9.00913 7.57889 9.00913 7.75549V10.9292Z" fill="white" stroke="white" stroke-width="0.2"/>
<path d="M11.1358 10.9292C11.1358 11.1058 11.2798 11.248 11.456 11.248C11.6321 11.248 11.7762 11.1063 11.7762 10.9292V7.75549C11.7762 7.57889 11.6322 7.43662 11.456 7.43662C11.2798 7.43662 11.1358 7.57889 11.1358 7.75549V10.9292Z" fill="white" stroke="white" stroke-width="0.2"/>
</svg>
