<svg width="1522" height="283" viewBox="0 0 1522 283" fill="none" xmlns="http://www.w3.org/2000/svg">
<path d="M164.741 287.039H246.166V204.44C246.166 171.165 263.391 154.332 298.231 154.332C302.538 154.332 307.627 154.724 317.805 155.898V77.2133L310.367 76.0389C304.103 75.256 298.231 74.8645 293.534 74.8645C270.829 74.8645 255.953 85.8256 239.511 114.011V79.1707H164.741V287.039Z" fill="white"/>
<path d="M487.261 262.377V287.039H561.639V79.1707H479.823V189.564C479.823 215.401 469.253 228.319 448.505 228.319C429.324 228.319 418.363 214.226 418.363 189.564V79.1707H336.938V208.354C336.938 263.551 365.906 293.694 417.971 293.694C447.723 293.694 459.075 288.605 487.261 262.377Z" fill="white"/>
<path d="M589.452 287.039H670.876V176.646C670.876 153.941 684.186 138.282 703.368 138.282C722.941 138.282 732.337 150.809 732.337 176.646V287.039H814.153V157.855C814.153 101.484 785.185 72.1243 730.379 72.1243C699.062 72.1243 679.88 81.5194 664.222 104.224V79.1707H589.452V287.039Z" fill="white"/>
<path d="M978.991 142.588H1052.59V137.107C1051.02 97.5694 1006.79 67.4265 949.631 67.4265C889.737 67.4265 846.284 98.3524 846.284 141.022C846.284 165.293 858.811 183.3 883.473 195.044C892.868 199.351 899.132 200.916 944.933 211.095C965.29 215.792 976.251 222.447 976.251 230.276C976.251 240.846 964.898 248.675 949.631 248.675C926.535 248.675 919.488 241.629 917.531 218.141H840.803V222.056C840.803 268.64 883.865 298 951.98 298C1018.14 298 1058.46 269.032 1058.46 221.273C1058.46 193.087 1037.71 170.382 1004.83 162.553L958.243 151.983C936.713 146.894 925.36 140.239 925.36 132.018C925.36 122.232 935.147 115.577 949.24 115.577C968.03 115.577 976.251 123.406 978.991 142.588Z" fill="white"/>
<path d="M1305.65 225.187H1228.92L1226.57 227.928C1216.79 240.455 1210.13 243.586 1195.65 243.586C1169.03 243.586 1156.5 230.668 1154.15 201.308H1309.57V193.479C1309.57 117.534 1263.76 70.9497 1189.39 70.9497C1119.31 70.9497 1073.9 115.577 1073.9 184.083C1073.9 254.156 1117.36 294.477 1192.52 294.477C1253.19 294.477 1287.25 273.729 1305.65 225.187ZM1153.37 159.421C1155.72 134.367 1170.2 119.883 1192.52 119.883C1215.22 119.883 1228.53 133.584 1230.88 159.421H1153.37Z" fill="white"/>
<path d="M1332.24 287.039H1413.67V0.48584H1332.24V287.039Z" fill="white"/>
<path d="M1441.38 287.039H1522.8V0.48584H1441.38V287.039Z" fill="white"/>
<circle cx="44.8555" cy="242.184" r="44.8555" fill="white"/>
</svg>
