<svg width="1753" height="328" viewBox="0 0 1753 328" fill="none" xmlns="http://www.w3.org/2000/svg">
<path d="M189.732 330.376H283.508V235.247C283.508 196.925 303.346 177.539 343.471 177.539C348.431 177.539 354.292 177.989 366.014 179.342V88.7213L357.448 87.3687C350.234 86.467 343.471 86.0162 338.061 86.0162C311.912 86.0162 294.78 98.64 275.844 131.101V90.9755H189.732V330.376Z" fill="white"/>
<path d="M561.175 301.973V330.376H646.836V90.9755H552.609V218.115C552.609 247.871 540.436 262.749 516.541 262.749C494.449 262.749 481.826 246.518 481.826 218.115V90.9755H388.049V239.756C388.049 303.325 421.412 338.041 481.375 338.041C515.639 338.041 528.714 332.18 561.175 301.973Z" fill="white"/>
<path d="M678.868 330.376H772.644V203.237C772.644 177.088 787.973 159.054 810.065 159.054C832.607 159.054 843.428 173.481 843.428 203.237V330.376H937.655V181.596C937.655 116.674 904.292 82.8602 841.173 82.8602C805.105 82.8602 783.014 93.6806 764.98 119.83V90.9755H678.868V330.376Z" fill="white"/>
<path d="M1127.5 164.013H1212.26V157.701C1210.45 112.165 1159.51 77.4499 1093.68 77.4499C1024.7 77.4499 974.66 113.067 974.66 162.21C974.66 190.162 989.087 210.901 1017.49 224.427C1028.31 229.386 1035.52 231.189 1088.27 242.911C1111.72 248.322 1124.34 255.986 1124.34 265.003C1124.34 277.176 1111.27 286.193 1093.68 286.193C1067.08 286.193 1058.97 278.078 1056.71 251.027H968.348V255.535C968.348 309.186 1017.94 343 1096.39 343C1172.58 343 1219.02 309.637 1219.02 254.634C1219.02 222.172 1195.13 196.023 1157.25 187.006L1103.6 174.833C1078.81 168.972 1065.73 161.308 1065.73 151.84C1065.73 140.569 1077 132.904 1093.23 132.904C1114.87 132.904 1124.34 141.921 1127.5 164.013Z" fill="white"/>
<path d="M1503.71 259.142H1415.34L1412.64 262.298C1401.37 276.725 1393.7 280.332 1377.02 280.332C1346.36 280.332 1331.94 265.454 1329.23 231.64H1508.22V222.623C1508.22 135.159 1455.47 81.5076 1369.81 81.5076C1289.11 81.5076 1236.81 132.904 1236.81 211.803C1236.81 292.505 1286.85 338.942 1373.41 338.942C1443.3 338.942 1482.52 315.047 1503.71 259.142ZM1328.33 183.399C1331.04 154.545 1347.72 137.864 1373.41 137.864C1399.56 137.864 1414.89 153.643 1417.6 183.399H1328.33Z" fill="white"/>
<path d="M1534.34 330.376H1628.11V0.354736H1534.34V330.376Z" fill="white"/>
<path d="M1660.03 330.376H1753.8V0.354736H1660.03V330.376Z" fill="white"/>
<circle cx="51.6598" cy="278.717" r="51.6598" fill="white"/>
</svg>
